<?xml version="1.0" encoding="utf-8"?>
<!-- Generator: Adobe Illustrator 17.0.0, SVG Export Plug-In . SVG Version: 6.00 Build 0)  -->
<!DOCTYPE svg PUBLIC "-//W3C//DTD SVG 1.1//EN" "http://www.w3.org/Graphics/SVG/1.1/DTD/svg11.dtd">
<svg version="1.1" id="Layer_1" xmlns="http://www.w3.org/2000/svg" xmlns:xlink="http://www.w3.org/1999/xlink" x="0px" y="0px"
	 width="72px" height="74.214px" viewBox="0 0 72 74.214" enable-background="new 0 0 72 74.214" xml:space="preserve">
<g>
	<path fill="#A30244" d="M53.328,29.442c3.96,1.282,7.394,3.283,10.37,6.055c7.508,6.995,7.757,17.817,0.537,25.116
		c-0.694,0.702-0.746,1.167-0.271,1.999c1.445,2.535,3.242,4.59,6.129,5.554c1.449,0.484,2.144,2.055,1.834,3.588
		c-0.285,1.405-1.517,2.446-3.004,2.448c-8.531,0.012-17.062,0.021-25.592-0.004c-2.378-0.007-3.814-2.611-2.659-4.697
		c0.133-0.24,0.403-0.411,0.397-0.772c-5.138-0.32-10.045-1.553-14.743-3.694c0.798,1.341,1.787,2.412,3.214,3.018
		c1.734,0.736,2.457,2.067,2.083,3.791c-0.32,1.471-1.584,2.363-3.358,2.363c-8.276,0.001-16.552,0.001-24.828,0
		c-1.793,0-3.062-0.939-3.362-2.477c-0.331-1.693,0.45-3.087,2.213-3.717c2.173-0.776,3.744-2.231,4.963-4.125
		c1.47-2.283,2.458-4.782,3.316-7.42c-1.281,0.123-2.374,0.606-3.429,1.187c-2.027,1.117-3.38,0.84-4.802-1.001
		c-0.389-0.504-0.791-0.998-1.163-1.513c-0.926-1.282-0.887-2.872,0.174-4.037c3.856-4.232,7.735-8.443,11.608-12.658
		c0.952-1.037,2.111-1.391,3.454-0.917c0.451,0.159,0.591,0.057,0.723-0.38c0.312-1.031,0.918-2.031,0.975-3.067
		c0.059-1.072-1.139-1.624-1.748-2.429c-4.119-5.444-3.663-12.235,1.166-17.277c2.404-2.51,5.282-4.258,8.508-5.464
		c0.554-0.207,0.867-0.481,1.05-1.066c0.577-1.847,1.223-3.673,1.853-5.503C29.483,0.758,30.471,0.015,32.138,0
		c2.578-0.023,5.157-0.023,7.735,0c1.62,0.014,2.623,0.735,3.165,2.264c0.657,1.854,1.283,3.72,1.895,5.589
		c0.118,0.361,0.275,0.607,0.636,0.755c2.137,0.873,4.045,2.135,5.84,3.563c0.62,0.494,1.194,0.589,1.924,0.341
		c0.844-0.286,1.654-0.643,2.463-1.011c1.485-0.676,2.78-0.43,3.901,0.743c0.395,0.414,0.778,0.841,1.139,1.284
		c0.898,1.1,1.072,2.332,0.361,3.552c-2.176,3.733-4.41,7.431-6.613,11.148C54.3,28.71,53.828,28.984,53.328,29.442z"/>
	<path fill="#FBFDFB" d="M23.581,62.097c0.024,0.269-0.004,0.44,0.057,0.568c1.272,2.672,2.712,5.198,5.639,6.421
		c0.979,0.409,1.507,1.319,1.359,2.275c-0.154,0.992-0.864,1.644-1.957,1.772c-0.315,0.037-0.635,0.029-0.953,0.029
		c-7.927,0.001-15.855,0.002-23.782-0.001c-0.348,0-0.701-0.009-1.045-0.059c-1.002-0.147-1.7-0.847-1.82-1.792
		c-0.114-0.898,0.355-1.759,1.245-2.157c0.81-0.362,1.654-0.651,2.407-1.133c2.143-1.37,3.476-3.412,4.606-5.609
		c1.151-2.236,1.958-4.609,2.748-7.081c-1.747-0.199-3.278,0.333-4.777,1.011c-0.346,0.157-0.67,0.363-1.007,0.542
		c-1.13,0.598-2.062,0.416-2.865-0.58c-0.479-0.594-0.955-1.193-1.394-1.817c-0.646-0.919-0.609-1.866,0.155-2.703
		c3.815-4.184,7.636-8.362,11.48-12.52c1.218-1.318,2.416-1.166,3.72,0.45c0.673-1.981,1.318-3.916,1.993-5.841
		c0.168-0.481-0.121-0.675-0.402-0.945c-2.184-2.097-3.788-4.524-4.236-7.592c-0.59-4.041,0.934-7.347,3.598-10.236
		c2.338-2.536,5.241-4.207,8.473-5.315c0.654-0.224,0.963-0.585,1.163-1.207c0.621-1.936,1.285-3.858,1.938-5.783
		c0.437-1.289,1.039-1.726,2.396-1.728c2.451-0.005,4.903-0.004,7.354,0c1.361,0.002,1.972,0.436,2.408,1.716
		c0.655,1.925,1.304,3.851,1.945,5.781c0.122,0.368,0.235,0.692,0.658,0.851c2.258,0.844,4.252,2.15,6.115,3.648
		c0.891,0.716,1.773,0.858,2.828,0.488c0.87-0.305,1.719-0.648,2.553-1.039c1.154-0.541,1.947-0.377,2.824,0.563
		c0.347,0.372,0.699,0.742,1.015,1.14c0.596,0.749,0.684,1.598,0.208,2.407c-2.156,3.672-4.334,7.33-6.532,10.977
		c-0.591,0.98-1.418,1.171-2.764,0.778c0.034,1.296,0.217,1.548,1.385,1.891c4.848,1.423,9.06,3.916,12.327,7.779
		c5.471,6.47,4.948,15.582-1.125,21.799c-1.458,1.493-1.454,1.49-0.44,3.336c1.481,2.698,3.41,4.885,6.443,5.91
		c1.031,0.348,1.537,1.279,1.407,2.238c-0.136,0.996-0.917,1.705-2.025,1.817c-0.284,0.029-0.572,0.018-0.859,0.018
		c-7.927,0.001-15.855,0.001-23.782,0c-0.286,0-0.575,0.01-0.858-0.019c-1.157-0.118-1.894-0.776-2.034-1.797
		c-0.138-1.007,0.395-1.866,1.463-2.292c0.715-0.285,1.366-0.655,2.046-1.329C37.2,67.849,30.1,66.232,23.581,62.097z"/>
	<path fill="#FBC324" d="M47.346,66.502c-9.018,0.77-17.223-1.055-24.619-6.205c-0.481,1.203-0.33,2.33,0.21,3.354
		c1.407,2.667,2.964,5.225,5.979,6.404c0.628,0.246,0.749,0.746,0.621,1.326c-0.15,0.68-0.687,0.73-1.265,0.73
		c-7.355-0.006-14.71-0.004-22.065-0.004c-0.987,0-1.974,0.003-2.961-0.002c-0.569-0.003-1.001-0.213-1.098-0.831
		c-0.089-0.566,0.088-1.033,0.661-1.223c4.332-1.436,6.463-4.922,8.193-8.779c0.912-2.033,1.555-4.165,2.293-6.263
		c0.187-0.531,0.041-0.624-0.464-0.691c-2.377-0.319-4.531,0.326-6.59,1.431c-1.28,0.686-1.45,0.66-2.29-0.45
		c-1.682-2.223-1.934-1.841,0.222-4.181c3.321-3.603,6.619-7.226,9.925-10.842c0.408-0.446,0.783-0.979,1.502-0.808
		c0.736,0.175,0.776,0.832,0.924,1.417c0.179,0.706,0.392,1.403,0.594,2.117c0.437-0.133,0.422-0.507,0.514-0.776
		c0.962-2.794,1.894-5.598,2.86-8.391c0.175-0.507,0.138-0.825-0.308-1.208c-1.993-1.713-3.563-3.755-4.2-6.345
		c-1.012-4.116,0.355-7.578,3.167-10.565c2.323-2.467,5.208-4.046,8.384-5.115c0.664-0.224,1.037-0.53,1.252-1.229
		c0.636-2.064,1.389-4.091,2.051-6.148c0.251-0.779,0.669-1.134,1.517-1.12c2.419,0.038,4.84,0.04,7.259-0.001
		c0.841-0.014,1.285,0.314,1.539,1.094c0.668,2.055,1.392,4.091,2.06,6.146c0.152,0.468,0.38,0.732,0.852,0.911
		c2.006,0.761,3.925,1.753,5.503,3.19c1.724,1.57,3.486,1.586,5.446,0.706c0.435-0.195,0.9-0.338,1.304-0.583
		c0.871-0.526,1.496-0.319,2.148,0.432c1.25,1.44,1.291,1.414,0.299,3.088c-1.882,3.173-3.767,6.344-5.659,9.511
		c-0.774,1.295-1.433,1.309-2.367,0.099c-0.834-1.081-1.687-2.146-2.69-3.137c0.788,2.328,1.572,4.658,2.366,6.984
		c0.136,0.399,0.53,0.402,0.864,0.493c5.244,1.419,9.786,4.013,13.115,8.359c4.273,5.579,3.953,13.019-0.611,18.606
		c-0.747,0.914-1.547,1.775-2.46,2.527c-0.239,0.197-0.516,0.346-0.32,0.77c1.179,2.557,2.497,5.012,4.716,6.856
		c0.968,0.805,2.062,1.379,3.235,1.797c0.668,0.238,1.034,0.625,0.896,1.346c-0.138,0.722-0.688,0.813-1.309,0.813
		c-8.278-0.005-16.557-0.005-24.835,0c-0.584,0-1.105-0.073-1.244-0.756c-0.142-0.699,0.139-1.126,0.826-1.387
		C44.983,69.323,46.195,68.084,47.346,66.502z"/>
	<path fill="#A30244" d="M44.218,42.302c-1.284-4.282-2.759-8.497-4.291-12.696c-1.242-3.402-2.358-6.849-3.538-10.274
		c-0.097-0.283-0.102-0.621-0.468-0.88c-0.809,2.344-1.605,4.641-2.396,6.94c-0.279,0.812-0.545,1.628-0.822,2.44
		c-0.108,0.317-0.207,0.544-0.667,0.367c-1.28-0.493-2.524-1.039-3.662-1.819c-2.836-1.944-1.842-4.421-0.143-5.89
		c1.931-1.67,4.29-2.331,6.749-2.606c3.909-0.437,7.435,0.558,10.524,3.043c0.569,0.458,0.935,0.989,1.165,1.682
		c2.029,6.114,4.071,12.223,6.133,18.326c1.097,3.249,2.216,6.491,3.383,9.715c0.262,0.723,0.162,1.268-0.264,1.844
		c-1.55,2.096-3.589,3.466-6.075,4.228c-0.651,0.2-0.691-0.22-0.82-0.595c-0.653-1.892-1.317-3.781-1.929-5.686
		c-0.197-0.614-0.493-0.832-1.153-0.829c-6.622,0.025-13.244,0.024-19.866,0.002c-0.645-0.002-0.949,0.19-1.169,0.811
		c-1.151,3.259-2.407,6.482-3.277,9.835c-0.416,1.601-0.101,3.096,0.709,4.496c1.491,2.577,3.16,4.994,5.995,6.332
		c-8.323,0-16.645,0-24.971,0c-0.029-0.154,0.117-0.205,0.218-0.242c3.261-1.197,5.406-3.596,7.054-6.532
		c1.046-1.864,1.836-3.839,2.561-5.844c2.836-7.853,5.335-15.819,8.025-23.721c0.295-0.868,0.521-0.912,1.239-0.406
		c1.88,1.325,3.948,2.315,6.116,3.073c0.605,0.212,0.703,0.455,0.491,1.023c-0.354,0.951-0.637,1.928-0.95,2.895
		c0.124,0.668-0.428,1.208-0.349,1.866c0.066,0.068,0.139,0.117,0.23,0.146c5.119,0.058,10.233-0.005,15.347,0.036
		C44.198,43.39,44.261,42.932,44.218,42.302z"/>
	<path fill="#A30244" d="M38.287,9.986c4.044,0.347,7.703,1.728,10.787,4.363c1.962,1.676,3.971,1.74,6.188,0.796
		c0.409-0.174,0.831-0.326,1.222-0.535c0.521-0.278,0.926-0.393,1.376,0.196c0.406,0.532,0.59,0.894,0.182,1.561
		c-2.042,3.332-4.019,6.705-6.088,10.181c-0.783-0.988-1.483-1.918-2.232-2.806c-2.261-2.684-4.78-5.063-8.206-6.168
		c-4.72-1.523-9.216-0.987-13.415,1.711c-0.539,0.347-0.99,0.802-1.388,1.301c-1.724,2.159-1.539,4.463,0.578,6.223
		c2.186,1.818,4.851,2.602,7.549,3.25c1.295,0.311,2.617,0.523,3.935,0.717c0.457,0.068,0.641,0.263,0.777,0.67
		c0.735,2.199,1.476,4.397,2.255,6.581c0.233,0.653,0.092,0.85-0.594,0.819c-7.064-0.32-13.708-1.966-19.481-6.263
		c-2.073-1.543-3.777-3.45-4.59-5.96c-1.192-3.683-0.144-6.897,2.318-9.719c2.946-3.377,6.829-5.093,11.086-6.117
		c1.736-0.418,3.511-0.56,5.273-0.796C36.641,9.882,37.464,9.887,38.287,9.986z"/>
	<path fill="#A30244" d="M45.932,58.333c4.598-0.189,8.556-1.702,11.101-5.757c2.285-3.64,1.132-8.672-2.413-11.082
		c-0.499-0.339-0.832-0.717-1.021-1.297c-0.877-2.685-1.788-5.358-2.735-8.176c1.585,0.347,2.993,0.865,4.358,1.5
		c3.097,1.441,5.876,3.353,8.017,6.024c4.46,5.565,4.151,12.956-0.678,18.328c-3.658,4.07-8.322,6.405-13.623,7.276
		c-9.091,1.494-17.569-0.243-25.266-5.444c-0.584-0.395-0.7-0.73-0.458-1.385c0.737-1.992,1.403-4.011,2.121-6.093
		c2.377,1.573,4.774,2.934,7.362,3.926c3.281,1.258,6.636,2.179,10.186,2.185C43.9,58.381,44.916,58.245,45.932,58.333z"/>
	<path fill="#A30244" d="M68.618,71.12c-8.309,0-16.619,0-24.926,0c-0.071-0.174,0.071-0.231,0.169-0.273
		c1.939-0.844,3.318-2.322,4.497-4.011c0.273-0.391,0.558-0.624,1.042-0.72c3.657-0.729,7.068-2.074,10.13-4.225
		c0.544-0.382,0.608-0.038,0.775,0.318c1.059,2.259,2.299,4.389,4.115,6.151C65.648,69.552,67.137,70.298,68.618,71.12z"/>
	<path fill="#A30244" d="M15.357,40.419c0.358,1.564,0.751,2.867,1.306,4.115c0.141,0.317,0.034,0.61-0.071,0.92
		c-0.819,2.407-1.627,4.817-2.427,7.23c-0.15,0.452-0.281,0.809-0.904,0.691c-2.59-0.491-5.001,0.135-7.249,1.376
		c-0.756,0.417-1.127,0.26-1.511-0.384c-0.162-0.271-0.374-0.514-0.577-0.759c-0.215-0.26-0.225-0.466,0.025-0.739
		C7.71,48.776,11.461,44.674,15.357,40.419z"/>
	<path fill="#A30244" d="M42.223,9.613c-2.228-0.474-4.252-0.725-6.33-0.599c-2.055,0.125-4.073,0.483-6.216,0.893
		c0.744-2.199,1.444-4.235,2.115-6.28c0.136-0.413,0.367-0.524,0.77-0.522c2.288,0.012,4.577,0.008,6.866,0.003
		c0.336-0.001,0.619,0.021,0.75,0.414C40.834,5.503,41.505,7.48,42.223,9.613z"/>
	<path fill="#FBFDFB" d="M35.995,50.709c3.116,0,6.231,0.016,9.346-0.014c0.579-0.006,0.829,0.186,1.003,0.723
		c0.536,1.659,1.097,3.313,1.711,4.945c0.257,0.684,0.009,0.781-0.595,0.854c-5.65,0.682-10.991-0.419-16.122-2.748
		c-1.767-0.802-3.45-1.76-5.051-2.858c-0.211-0.144-0.577-0.211-0.451-0.618c0.122-0.394,0.452-0.28,0.717-0.28
		C29.7,50.707,32.848,50.709,35.995,50.709z"/>
	<path fill="#FBFDFB" d="M28.777,42.17c0.423-1.16,0.868-2.312,1.259-3.483c0.163-0.49,0.339-0.641,0.886-0.477
		c3.518,1.061,7.116,1.636,10.797,1.626c0.441-0.001,0.708,0.11,0.836,0.572c0.193,0.701,0.447,1.385,0.675,2.076
		c-0.29,0.319-0.685,0.315-1.063,0.317c-4.106,0.015-8.212,0.025-12.318-0.015C29.452,42.781,28.742,43.043,28.777,42.17z"/>
	<path fill="#FBC224" d="M28.777,42.17c0.056,0.539,0.478,0.313,0.736,0.314c4.572,0.011,9.144,0.004,13.717,0
		c0.287-0.291,0.654-0.15,0.989-0.182c0.592,1.272,0.592,1.272-0.776,1.272c-4.989,0-9.977,0.003-14.966-0.007
		c-0.335-0.001-0.698,0.128-1.009-0.119c0.331-0.176,0.688-0.088,1.031-0.088c4.903-0.007,9.806-0.004,14.709-0.005
		c0.3,0,0.6,0.007,0.895-0.046c0.117-0.08-0.041-0.244,0.016-0.13c0.024,0.049-0.004,0.062-0.032,0.092
		c-0.157,0.165-0.354,0.074-0.526,0.075c-5.19,0.006-10.379,0.006-15.569,0.004c-0.188,0-0.384,0.031-0.554-0.092
		c0.135-0.673,0.387-1.305,0.676-1.924C28.336,41.613,28.557,41.891,28.777,42.17z"/>
	<path fill="#FBFCFA" d="M36.126,21.697c0.904,2.636,1.809,5.272,2.751,8.017c-1.772-0.133-3.396-0.518-5.013-0.953
		c-0.289-0.078-0.342-0.202-0.248-0.475c0.763-2.204,1.515-4.412,2.271-6.618C35.967,21.677,36.046,21.687,36.126,21.697z"/>
	<path fill="#FBFCF7" d="M54.712,43.186c1.848,1.114,2.941,4.591,2.198,6.514C56.162,47.482,55.437,45.334,54.712,43.186z"/>
	<path fill="#FBC52C" d="M39.619,2.895c-2.462,0-4.924,0-7.386,0c0-0.025-0.001-0.05-0.001-0.075c2.462,0,4.924,0,7.386,0
		C39.618,2.845,39.618,2.87,39.619,2.895z"/>
	<path fill="#FBC52C" d="M45.932,58.333c-1.016,0.106-2.032,0.252-3.048,0.005C43.9,58.052,44.916,58.059,45.932,58.333z"/>
	<path fill="#FBC52C" d="M38.287,9.986c-0.823,0.001-1.646,0.002-2.469,0.004C36.641,9.722,37.464,9.727,38.287,9.986z"/>
	<path fill="#FBC52C" d="M27.44,43.258c5.586,0,11.172,0,16.758,0c0,0.064,0,0.127,0,0.191c-5.577,0-11.153,0-16.73,0
		c-0.015-0.041-0.033-0.082-0.043-0.124C27.421,43.305,27.434,43.281,27.44,43.258z"/>
	<path fill="#A40345" d="M28.605,51.695c0.328,0,0.566,0,0.804,0c5.025,0,10.051,0.014,15.076-0.017
		c0.647-0.004,0.955,0.162,1.144,0.798c0.368,1.241,0.83,2.454,1.255,3.685C41.913,57.159,31.801,54.711,28.605,51.695z"/>
	<path fill="#A50647" d="M36.017,41.508c-1.685,0-3.37-0.014-5.055,0.008c-0.558,0.007-0.816-0.024-0.573-0.719
		c0.522-1.498,0.481-1.521,2.017-1.125c2.809,0.725,5.667,1.096,8.563,1.195c0.293,0.01,0.744-0.111,0.739,0.358
		c-0.005,0.526-0.482,0.266-0.732,0.27C39.323,41.521,37.67,41.508,36.017,41.508z"/>
	<path fill="#A50546" d="M36.003,24.499c0.507,1.471,0.919,2.669,1.332,3.868c-0.124,0.044-0.184,0.089-0.231,0.078
		c-0.733-0.171-1.787-0.025-2.112-0.579c-0.319-0.543,0.366-1.372,0.569-2.088C35.655,25.447,35.785,25.125,36.003,24.499z"/>
	<path fill="#FBFDFB" d="M33.166,52.811c3.666,0,7.333,0.009,10.999-0.008c0.632-0.003,0.572,0.497,0.7,0.839
		c0.631,1.693,0.622,1.682-1.181,1.656C40.004,55.246,36.511,54.391,33.166,52.811z"/>
</g>
</svg>
